<svg height="464pt" viewBox="0 0 464 464" width="464pt" xmlns="http://www.w3.org/2000/svg"><path d="m32 0h400c17.671875 0 32 14.328125 32 32v272h-464v-272c0-17.671875 14.328125-32 32-32zm0 0" fill="#bddbff"/><path d="m0 303.703125v32.296875c0 17.671875 14.328125 32 32 32h400c17.671875 0 32-14.328125 32-32v-32.296875zm0 0" fill="#00479b"/><path d="m56 0c-17.671875 0-32 14.328125-32 32v271.679688h-24v-271.679688c0-17.671875 14.328125-32 32-32zm0 0" fill="#9bc9ff"/><path d="m56 368h-24c-17.671875 0-32-14.328125-32-32v-32.320312h24v32.320312c0 17.671875 14.328125 32 32 32zm0 0" fill="#003f8a"/><path d="m152 416h160l-16-48h-128zm0 0" fill="#a7a9ac"/><path d="m120 416c-17.671875 0-32 14.328125-32 32v16h288v-16c0-17.671875-14.328125-32-32-32zm0 0" fill="#58595b"/><path d="m184 0v80c0 26.507812 21.492188 48 48 48s48-21.492188 48-48v-80zm0 0" fill="#ed1c24"/><path d="m280 0v80c0 26.507812 21.492188 48 48 48s48-21.492188 48-48v-80zm0 0" fill="#ffcd00"/><path d="m432 0h-56v84c0 24.300781 19.699219 44 44 44s44-19.699219 44-44v-52c0-17.671875-14.328125-32-32-32zm0 0" fill="#ed1c24"/><path d="m88 0v80c0 26.507812 21.492188 48 48 48s48-21.492188 48-48v-80zm0 0" fill="#ffcd00"/><path d="m32 0c-17.671875 0-32 14.328125-32 32v52c0 24.300781 19.699219 44 44 44s44-19.699219 44-44v-84zm0 0" fill="#ed1c24"/><path d="m217.65625 189.800781c-.980469-3.433593-4.117188-5.800781-7.6875-5.800781h-3.9375c-3.570312 0-6.707031 2.367188-7.6875 5.800781l-9.777344 34.199219h38.867188zm0 0" fill="#bddbff"/><path d="m80 160h304c17.671875 0 32 14.328125 32 32v48c0 17.671875-14.328125 32-32 32h-304c-17.671875 0-32-14.328125-32-32v-48c0-17.671875 14.328125-32 32-32zm0 0" fill="#ed1c24"/><path d="m192 328h16v16h-16zm0 0" fill="#f1f2f2"/><path d="m224 328h16v16h-16zm0 0" fill="#f1f2f2"/><path d="m256 328h16v16h-16zm0 0" fill="#f1f2f2"/><path d="m224 72h16v16h-16zm0 0" fill="#231f20"/><g fill="#f1f2f2"><path d="m168 232c0-13.253906-10.746094-24-24-24h-16c-4.417969 0-8-3.582031-8-8s3.582031-8 8-8h40v-16h-40c-13.253906 0-24 10.746094-24 24s10.746094 24 24 24h16c4.417969 0 8 3.582031 8 8s-3.582031 8-8 8h-40v16h40c13.253906 0 24-10.746094 24-24zm0 0"/><path d="m192 241.121094 2.609375-9.121094h26.78125l2.609375 9.121094v14.878906h16v-16l-14.65625-52.390625c-1.976562-6.855469-8.242188-11.585937-15.375-11.609375h-3.9375c-7.132812.023438-13.394531 4.746094-15.375 11.601562l-14.34375 50.199219-.3125 18.199219h16zm17.96875-49.121094 6.855469 24h-17.625l6.855469-24zm0 0"/><path d="m272 256h32v-16h-32v-64h-16v64c0 8.835938 7.164062 16 16 16zm0 0"/><path d="m328 256h32v-16h-32v-16h32v-16h-32v-16h32v-16h-32c-8.835938 0-16 7.164062-16 16v48c0 8.835938 7.164062 16 16 16zm0 0"/><path d="m384 208h16v16h-16zm0 0"/><path d="m64 208h16v16h-16zm0 0"/></g><path d="m400 72h64v16h-64zm0 0" fill="#be1e2d"/><path d="m304 72h72v16h-72zm0 0" fill="#ddb200"/><path d="m184 72h24v16h-24zm0 0" fill="#be1e2d"/><path d="m160 72h24v16h-24zm0 0" fill="#ddb200"/><path d="m88 72h56v16h-56zm0 0" fill="#ddb200"/><path d="m0 72h64v16h-64zm0 0" fill="#be1e2d"/><path d="m224 72h16v16h-16zm0 0" fill="#be1e2d"/><path d="m256 72h24v16h-24zm0 0" fill="#be1e2d"/></svg>